<?xml version="1.0" encoding="UTF-8" standalone="no"?>
<svg
   width="16"
   height="16"
   fill="currentColor"
   class="bi bi-file-earmark-plus"
   viewBox="0 0 16 16"
   version="1.1"
   id="svg6"
   sodipodi:docname="file-earmark-plus.svg"
   inkscape:version="1.2.1 (9c6d41e410, 2022-07-14, custom)"
   inkscape:export-filename="arp-file.png"
   inkscape:export-xdpi="768"
   inkscape:export-ydpi="768"
   xmlns:inkscape="http://www.inkscape.org/namespaces/inkscape"
   xmlns:sodipodi="http://sodipodi.sourceforge.net/DTD/sodipodi-0.dtd"
   xmlns="http://www.w3.org/2000/svg"
   xmlns:svg="http://www.w3.org/2000/svg">
  <defs
     id="defs10" />
  <sodipodi:namedview
     id="namedview8"
     pagecolor="#ffffff"
     bordercolor="#000000"
     borderopacity="0.25"
     inkscape:showpageshadow="2"
     inkscape:pageopacity="0.0"
     inkscape:pagecheckerboard="0"
     inkscape:deskcolor="#d1d1d1"
     showgrid="false"
     inkscape:zoom="46.4375"
     inkscape:cx="6.8909825"
     inkscape:cy="7.9892328"
     inkscape:window-width="1351"
     inkscape:window-height="1007"
     inkscape:window-x="228"
     inkscape:window-y="478"
     inkscape:window-maximized="0"
     inkscape:current-layer="svg6" />
  <path
     d="M8 6.5a.5.5 0 0 1 .5.5v1.5H10a.5.5 0 0 1 0 1H8.5V11a.5.5 0 0 1-1 0V9.5H6a.5.5 0 0 1 0-1h1.5V7a.5.5 0 0 1 .5-.5z"
     id="path2"
     style="fill:#ffffff" />
  <path
     d="M14 4.5V14a2 2 0 0 1-2 2H4a2 2 0 0 1-2-2V2a2 2 0 0 1 2-2h5.5L14 4.5zm-3 0A1.5 1.5 0 0 1 9.5 3V1H4a1 1 0 0 0-1 1v12a1 1 0 0 0 1 1h8a1 1 0 0 0 1-1V4.5h-2z"
     id="path4"
     style="fill:#ffffff" />
</svg>
